<?xml version="1.0" encoding="UTF-8"?><svg id="a" xmlns="http://www.w3.org/2000/svg" viewBox="0 0 174.41 278.38"><defs><style>.b{stroke-width:0px;}</style></defs><path class="b" d="m172.77,110.3c-1.09-1.51-2.48-2.61-4.15-3.28-.69-.33-1.78-.51-3.29-.51-1.84,0-3.49.51-4.92,1.52-1.42,1.01-2.48,2.36-3.16,4.04l-3.79,9.34c-5.55,13.29-12.78,24.82-21.7,34.58-14.31,15.82-30.54,23.72-48.72,23.72-7.05,0-13.5-1.42-19.3-4.29-5.81-2.86-10.56-6.98-14.27-12.36-4.88-7.24-7.57-15.57-8.08-24.99-.15-1.18-.25-2.86-.25-5.05,0-3.7.35-7.15,1.01-10.35,2.03.17,5.14.25,9.35.25,15.99,0,31.71-3.36,47.19-10.09,13.63-5.89,26.26-13.89,37.87-23.98,10.94-9.59,19.64-19.73,26.12-30.42,6.47-10.68,9.72-20.23,9.72-28.65s-2.95-15.9-8.84-21.45c-6.06-5.56-13.55-8.33-22.46-8.33-9.94,0-20.41,2.57-31.42,7.7-11.03,5.13-21.84,12.41-32.43,21.83-10.44,9.43-19.44,19.61-27.01,30.54-8.43,11.95-14.9,24.23-19.45,36.85l-1.51,3.79-.76-.25c-4.38-2.69-7.49-6.48-9.33-11.36-.85-2.36-1.26-5.47-1.26-9.34,0-7.91,2.26-16.66,6.82-26.25,3.52-7.07,7.99-13.88,13.37-20.45,5.38-6.56,11.26-12.28,17.66-17.16,1.18-.67,2.06-1.64,2.65-2.9.59-1.26.88-2.56.88-3.92,0-2.01-.59-3.86-1.75-5.55-1.87-2.35-4.22-3.53-7.07-3.53-1.86,0-3.62.59-5.31,1.77-7.56,5.89-14.47,12.58-20.69,20.06-6.23,7.49-11.45,15.44-15.66,23.86C2.94,57.97,0,69.41,0,80.01c0,5.22.75,10.1,2.27,14.64,3.04,9.09,8.75,16.07,17.17,20.95,2.35,1.35,4.12,2.27,5.31,2.78-.86,5.39-1.28,10.18-1.28,14.39,0,2.86.09,5.04.27,6.56.83,12.79,4.53,24.07,11.09,33.82,5.23,7.57,12.12,13.55,20.7,17.92,8.24,4.21,17.42,6.31,27.51,6.31,12.28,0,24.15-2.86,35.6-8.58,4.7-2.69,8.15-4.88,10.35-6.56-11.79,26.92-24.24,48.29-37.36,64.11-10.39,12.54-21.76,20.1-34.06,22.7-3.23.69-6.51,1.03-9.87,1.03s-6.39-.35-9.25-1.03c-3.93-.94-7.41-2.54-10.43-4.78-5.21-3.87-9.01-7.4-11.36-10.6l-.25-.51c-1.69-2.52-4.21-3.78-7.58-3.78-1.51,0-2.61.16-3.27.5-2.03.84-3.5,2.19-4.42,4.04-.93,1.85-1.23,3.87-.89,6.06.34,1.68,1.85,4.12,4.56,7.32.48.57,1.01,1.15,1.57,1.75,1.93,2.04,4.26,4.23,7,6.58,1.21.97,2.44,1.89,3.69,2.75h64.07c2.94-1.76,5.85-3.77,8.73-6.03,1.37-1.03,2.73-2.13,4.09-3.3,9.49-8.14,18.73-19.49,27.7-34.06,8.09-12.79,15.53-26.92,22.34-42.4,6.81-15.48,14.51-34.58,23.1-57.3l3.02-7.32c2.19-5.72,3.45-9,3.79-9.84.34-1.35.5-2.27.5-2.78,0-1.85-.54-3.53-1.64-5.05Zm-125.57-7.07c4.21-11.1,9.93-21.91,17.17-32.43,7.23-10.52,15.47-19.81,24.73-27.89,8.92-7.91,17.89-14.09,26.89-18.55,9-4.46,17.36-6.69,25.11-6.69,4.21,0,7.53,1.09,9.97,3.28,2.43,2.19,3.67,5.13,3.67,8.83,0,5.05-2.54,11.7-7.59,19.94-5.21,8.59-12.62,17.17-22.2,25.75-10.1,8.92-21.2,15.99-33.32,21.2-13.13,5.72-26.51,8.58-40.13,8.58h-5.06l.76-2.02Z"/></svg>