
<svg width="1090" height="1188" viewBox="0 0 1090 1188" fill="none" xmlns="http://www.w3.org/2000/svg">
<path opacity="0.2" d="M992.5 537.5C992.5 717.08 958.877 879.55 886.129 997.133C813.398 1114.69 701.553 1187.4 545 1187.5C388.447 1187.6 276.602 1114.89 203.871 997.286C131.123 879.652 97.5 717.08 97.5 537.5C97.5 357.92 131.123 195.45 203.871 77.8665C276.602 -39.6896 388.447 -112.398 545 -112.5C701.553 -112.602 813.398 -39.8935 886.129 77.7136C958.877 195.348 992.5 357.92 992.5 537.5Z" stroke="white"/>
<path opacity="0.2" d="M545 163.5C695.447 163.5 831.551 191.605 930.046 252.407C1028.52 313.193 1089.41 406.663 1089.5 537.5C1089.59 668.337 1028.69 761.807 930.175 822.593C831.636 883.395 695.447 911.5 545 911.5C394.553 911.5 258.449 883.395 159.953 822.593C61.4848 761.807 0.585247 668.337 0.499984 537.5C0.41472 406.663 61.314 313.193 159.825 252.408C258.364 191.605 394.553 163.5 545 163.5Z" stroke="white"/>
</svg>
