<svg width="674" height="552" viewBox="0 0 674 552" fill="none" xmlns="http://www.w3.org/2000/svg">
<g clip-path="url(#clip0_1787_36676)">
<path d="M194.045 482.36L159.203 466.798L101.715 452.861L130.375 395.051L137.137 373.069L86.6168 348.336L94.3682 293.033L61.3623 241.024L122.039 230.456L108.273 188.065H199.852L186.496 160.192L213.066 115.176L237.597 135.79L266.632 126.134L284.633 100.381L338.746 140.378V94.3571L402.766 115.176L415.57 94.3571L433.861 126.134L490.564 108.602L499.71 213.793L554.655 219.858L539.502 255.825L559.622 301.846L514.808 329.24L476.262 357.047L525.62 373.069L554.655 412.793L483.23 409.89L486.714 436.021L510.522 485.961L469.874 496.994L460.002 539.622H379.452L323.663 501.271L298.969 514.968L274.276 528.665L236.436 509.188L180.689 528.665L194.045 482.36Z" fill="white"/>
<path d="M194.089 178.973L218.218 142.801M218.218 142.801L240.772 161.537L271.276 150.319M218.218 142.801L213.753 116.101M271.276 150.319L293.342 121.283M271.276 150.319L265.469 124.768M293.342 121.283L322.377 146.254M293.342 121.283L284.286 97.9298M119.63 227.199L126.373 254.028L90.6807 261.812M198.611 188.386L199.248 203.742H106.94M477.173 357.937L487.075 377.249L544.202 392.467M483.274 411.212L468.434 453.063M468.434 453.063L502.972 506.864M468.434 453.063L493.681 432.535M351.992 150.319L350.674 111.637L407.179 134.51L400.771 102.702M514.46 248.986L548.576 318.395M147.376 411.212L113.37 482.069" stroke="#161617" stroke-width="2.61312" stroke-linecap="round" stroke-linejoin="round"/>
<path d="M439.265 175.142C439.339 172.65 437.599 170.576 435.379 170.51C433.159 170.444 431.3 172.411 431.226 174.903C431.152 177.396 432.891 179.47 435.111 179.536C437.331 179.602 439.191 177.634 439.265 175.142Z" fill="white"/>
<path d="M465.061 173.228C469.417 168.09 469.412 160.926 465.051 157.229C460.689 153.531 453.622 154.699 449.265 159.837C444.909 164.976 444.914 172.139 449.276 175.837C453.637 179.534 460.705 178.366 465.061 173.228Z" fill="white"/>
<path d="M172.041 313.261C208.587 331.168 204.932 341.401 200.912 356.75C197.257 364.425 188.852 382.552 184.466 393.662C182.314 399.113 171.629 414.322 161.015 418.688C148.638 428.006 113.993 409.187 109.608 389.818C87.1355 377.573 38.2414 350.888 12.4806 313.261C-13.2803 275.633 9.71888 211.066 67.5194 222.627C76.4179 224.407 84.429 228.252 91.8308 233.424C93.7076 234.503 95.4057 235.796 96.9435 237.274C124.749 259.707 144.284 299.66 172.041 313.261Z" fill="#161617"/>
<path d="M161.015 418.688C171.629 414.322 182.314 399.113 184.466 393.662C188.852 382.552 197.257 364.425 200.912 356.75C204.932 341.401 208.587 331.168 172.041 313.261C142.614 298.841 122.428 254.803 91.8308 233.424M161.015 418.688C148.638 428.006 113.993 409.187 109.608 389.818M161.015 418.688C182.889 406.267 161.435 373.356 152.978 362.742M91.8308 233.424C84.429 228.252 76.4179 224.407 67.5194 222.627C9.71888 211.066 -13.2803 275.633 12.4806 313.261C38.2414 350.888 87.1355 377.573 109.608 389.818M91.8308 233.424C112.471 245.285 111.503 283.12 113.33 306.875C115.981 341.335 137.671 353.689 152.978 362.742M109.608 389.818C114.337 382.894 131.954 364.813 152.978 362.742" stroke="white" stroke-width="2.91679" stroke-linecap="round" stroke-linejoin="round"/>
<path d="M262.275 522.099C273.122 506.382 305.496 501.367 314.718 469.8L398.917 487.552C403.613 489.9 410.509 501.367 410.509 509.173C410.509 530.312 408.243 536.488 406.903 537.629H379.922L323.801 501.367L274.372 528.564L262.275 522.099Z" fill="#161617" stroke="white" stroke-width="2.75638" stroke-linecap="round" stroke-linejoin="round"/>
<path d="M320.72 453.973C327.022 423.911 343.416 358.07 358.556 335.205C346.742 330.846 331.495 324.235 315.621 315.824C307.044 330.725 283.748 332.613 260.119 320.846C242.022 311.831 229.382 305.009 224.728 302.395C220.506 310.758 216.539 320.474 215.628 328.38C180.245 327.329 164.78 301.536 161.469 288.774C162.405 282.041 166.071 265.522 173.22 253.339C182.158 238.11 200.038 219.829 232.033 240.791C230.009 235.655 228.714 230.415 228.287 225.094C223.176 161.123 248.106 141.577 297.457 82.1739C346.812 22.7712 376.299 11.1045 392.542 35.5662C430.451 1.27784 452.317 -11.1742 467.638 19.5301C483.047 11.0714 499.555 6.42164 516.207 7.88181C526.528 8.18786 529.957 18.8995 530.916 23.8442C541.207 19.696 552.35 17.5242 564.227 18.1584C591.133 18.9585 584.758 59.7144 559.017 81.8236C533.276 103.933 503.202 147.675 507.332 157.756C511.458 167.838 558.626 132.351 611.771 143.889C664.917 155.426 668.567 206.444 649.054 217.668C629.537 228.892 599.153 220.983 574.079 220.607C549.006 220.231 533.936 230.85 518.818 255.485C503.7 280.12 466.439 331.212 414.739 345.54C408.265 376.551 399.85 426.477 401.38 458.579C395.805 472.432 329.102 482.624 320.728 453.97L320.72 453.973Z" fill="#FFE900"/>
<mask id="mask0_1787_36676" style="mask-type:alpha" maskUnits="userSpaceOnUse" x="161" y="2" width="499" height="471">
<path d="M320.72 453.973C327.022 423.911 343.416 358.07 358.556 335.205C346.742 330.846 331.495 324.235 315.621 315.824C307.044 330.725 283.748 332.613 260.119 320.846C242.022 311.831 229.382 305.009 224.728 302.395C220.506 310.758 216.539 320.474 215.628 328.38C180.245 327.329 164.78 301.536 161.469 288.774C162.405 282.041 166.071 265.522 173.22 253.339C182.158 238.111 200.038 219.829 232.033 240.791C230.009 235.655 228.714 230.415 228.287 225.094C223.176 161.123 248.106 141.577 297.457 82.1739C346.812 22.7712 376.299 11.1045 392.542 35.5662C430.451 1.27784 452.317 -11.1742 467.638 19.5301C483.047 11.0714 499.555 6.42164 516.207 7.88181C526.528 8.18786 529.957 18.8995 530.916 23.8442C541.207 19.696 552.35 17.5242 564.227 18.1584C591.133 18.9585 584.758 59.7144 559.017 81.8236C533.276 103.933 503.202 147.675 507.332 157.756C511.458 167.838 558.626 132.351 611.771 143.888C664.917 155.426 668.567 206.444 649.054 217.668C629.537 228.892 599.153 220.983 574.079 220.607C549.006 220.231 533.936 230.85 518.818 255.485C503.7 280.12 466.439 331.212 414.74 345.54C408.265 376.551 399.85 426.477 401.38 458.579C395.805 472.432 329.102 482.624 320.728 453.97L320.72 453.973Z" fill="#FEE900"/>
</mask>
<g mask="url(#mask0_1787_36676)">
<path d="M393.366 32.6344C381.33 44.4523 354.518 76.1227 346.83 96.5504M395.056 99.8285C408.984 70.4398 437.404 34.6116 468.726 17.1705M456.126 117.871C459.861 92.8507 491.757 37.4632 535.135 20.3875M214.365 327.095C216.38 312.991 226.384 295.257 231.66 287.3" stroke="#161617" stroke-width="2.92483" stroke-linecap="round" stroke-linejoin="round"/>
<path d="M490.661 51.5222C498.006 46.3931 514.136 8.64455 500.496 8.24263C527.339 2.4496 532.584 16.4374 532.827 22.7169L518.661 28.6352L490.661 51.5222Z" fill="#161617"/>
<path d="M426.927 50.2455C441.205 35.3598 443.779 2.84165 434.129 4.76643C455.178 -4.50408 464.109 10.5775 467.564 18.4242L443.942 33.2311L426.927 50.2455Z" fill="#161617"/>
<path d="M361.066 68.3578C373.131 53.4057 374.949 24.3257 361.066 25.9444C377.739 18.9289 388.681 27.0312 393.375 32.6433L371.453 56.1567L361.066 68.3578Z" fill="#161617"/>
</g>
<path fill-rule="evenodd" clip-rule="evenodd" d="M418.72 14.1157C411.179 19.3638 402.762 26.3562 393.304 34.9101L392.138 35.9646L391.173 34.7244C387.086 29.4769 382.296 26.2888 376.714 25.2331C371.107 24.1727 364.51 25.2276 356.764 28.8407C341.223 36.0902 321.359 53.3636 296.707 83.034C321.41 53.3017 339.371 33.7314 355.53 26.194C363.634 22.4137 370.866 21.1549 377.257 22.3635C383.202 23.488 388.253 26.7171 392.488 31.7131C401.528 23.5858 409.674 16.8529 417.052 11.7186C424.729 6.37617 431.648 2.71071 437.939 1.036C444.266 -0.648589 450.005 -0.328316 455.194 2.36161C460.036 4.87151 464.239 9.36204 467.988 15.8252C483.215 7.73655 498.874 4.27427 515.365 5.7123C521.018 5.89326 524.995 8.65755 527.643 11.99C529.751 14.6429 531.038 17.6742 531.728 20.1335C541.754 16.3181 552.572 14.3487 564.071 14.9602C571.23 15.1778 576.443 18.2222 579.683 23.1143C582.882 27.9442 584.059 34.4204 583.56 41.4055C582.561 55.3729 572.921 69.753 559.759 81.0574C572.339 70.2527 579.704 54.3755 580.646 41.1972C581.117 34.6095 579.975 28.8448 577.248 24.7269C574.564 20.6751 570.252 18.0658 563.966 17.8789L563.949 17.8784L563.932 17.8775C552.288 17.2557 541.357 19.3834 531.245 23.4595L529.602 24.1216L529.265 22.3831C528.819 20.0804 527.621 16.6573 525.356 13.8068C523.121 10.9931 519.881 8.76795 515.236 8.63021L515.193 8.62896L515.151 8.62527C498.813 7.19258 483.303 10.7386 468.123 19.0711L466.844 19.7733L466.141 18.4945C462.369 11.6333 458.299 7.26102 453.85 4.95447C449.438 2.66765 444.473 2.31853 438.69 3.85821C432.87 5.40777 426.272 8.86025 418.72 14.1157Z" fill="#161617"/>
<path d="M164.77 289.241C156.024 285.661 146.665 290.178 150.338 303.198C152.65 314.776 183.321 339.47 198.369 350.366C204.733 351.413 217.967 351.244 220.01 342.154C222.561 330.794 212.687 327.918 196.99 322.287C181.293 316.657 173.516 292.818 164.77 289.238V289.241Z" fill="white" stroke="#161617" stroke-width="2.92483" stroke-linecap="round" stroke-linejoin="round"/>
<path fill-rule="evenodd" clip-rule="evenodd" d="M409.574 117.895C435.225 106.909 458.767 124.362 449.764 156.073C446.998 165.807 443.053 173.446 438.394 179.313C410.447 148.524 385.865 161.74 377.073 172.193C376.627 168.697 376.645 164.982 377.127 161.185C368.821 149.682 340.391 145.042 328.64 167.952C327.773 149.544 340.065 124.761 356.722 113.349C382.638 95.5951 400.502 104.843 409.574 117.895Z" fill="white" stroke="#161617" stroke-width="2.92052" stroke-linejoin="round"/>
<path d="M378.469 179.829C381.08 187.65 386.515 193.612 394.789 195.736C408.893 199.376 426.711 196.297 439.347 180.427C410.925 149.158 385.925 162.58 376.983 173.196C377.275 175.515 377.776 177.739 378.473 179.829H378.469Z" fill="#161617"/>
<path d="M343.288 190.88C361.732 197.491 376.839 187.13 378.469 179.821C377.772 177.731 377.274 175.507 376.979 173.188C376.526 169.637 376.544 165.865 377.035 162.008C368.587 150.326 339.125 144.644 327.175 167.911C327.665 178.306 332.459 186.997 343.285 190.876L343.288 190.88Z" fill="#161617"/>
<path fill-rule="evenodd" clip-rule="evenodd" d="M414.41 117.236C411.276 118.577 406.492 121.056 403.39 123.564C390.7 133.828 381.036 155.296 379.343 168.664C379.227 169.573 378.397 170.217 377.488 170.101C376.579 169.986 375.935 169.156 376.05 168.247C377.853 154.019 389.852 128.82 406.083 118.672M414.41 117.236C412.557 117.236 409.43 116.292 406.083 118.672L414.41 117.236Z" fill="#161617"/>
<path d="M199.859 321.556C199.107 321.287 198.336 321.014 197.551 320.73C188.978 317.655 182.801 308.676 177.352 300.752C173.163 294.661 169.546 289.403 165.397 287.707C160.128 285.55 154.752 286.092 151.363 289.115C149.361 290.9 146.363 295.155 148.723 303.592C151.824 318.562 195.534 350.365 197.396 351.715C197.606 351.866 197.846 351.966 198.1 352.01C199.734 352.279 201.732 352.463 203.871 352.463C211.076 352.463 219.863 350.384 221.629 342.526C224.372 330.299 214.092 326.634 199.859 321.56V321.556Z" fill="white" stroke="#161617" stroke-width="2.92483" stroke-linecap="round" stroke-linejoin="round"/>
<path fill-rule="evenodd" clip-rule="evenodd" d="M378.172 233.609C358.301 231.913 336.926 231.279 345.005 257.341C346.395 264.265 353.67 278.55 371.624 280.265C374.647 280.552 377.682 280.434 380.724 279.959C378.906 276.282 377.689 267.385 387.317 261.179C396.944 254.973 406.642 261.566 410.292 265.633C419.345 258.679 427.995 249.995 435.868 241.223C454.562 220.383 448.965 197.713 436.731 212.105C424.5 226.496 398.047 235.301 378.176 233.605L378.172 233.609Z" fill="#161617"/>
<path d="M387.309 261.18C377.681 267.386 378.898 276.284 380.716 279.96C390.723 278.393 400.727 272.976 410.285 265.635C406.634 261.564 396.937 254.971 387.309 261.18Z" fill="white"/>
<path d="M509.965 144.891C509.891 145.06 509.814 145.234 509.74 145.403C507.122 151.513 504.378 161.86 516.671 158.497C532.479 154.172 565.226 137.861 603.018 142.165C643.048 146.724 660.173 174.393 659.676 191.163C658.971 179.526 631.616 170.563 610.248 170.035C579.02 169.268 546.019 180.666 526.675 183.048C494.426 187.019 502.509 161.978 509.733 145.403C509.806 145.23 509.884 145.057 509.957 144.891H509.965Z" fill="#161617"/>
<path d="M210.764 255.939C210.957 249.425 206.411 244.005 200.61 243.833C194.808 243.661 189.949 248.802 189.755 255.315C189.562 261.829 194.108 267.249 199.91 267.421C205.711 267.594 210.57 262.453 210.764 255.939Z" fill="white"/>
<path d="M522.471 56.7651C522.565 53.5998 520.356 50.966 517.537 50.8823C514.717 50.7986 512.356 53.2968 512.262 56.4621C512.168 59.6274 514.377 62.2612 517.196 62.3449C520.016 62.4285 522.377 59.9304 522.471 56.7651Z" fill="white"/>
<path d="M555.231 54.3358C560.763 47.8101 560.757 38.7131 555.218 34.0171C549.679 29.3211 540.704 30.8044 535.171 37.3301C529.639 43.8558 529.645 52.9527 535.184 57.6487C540.723 62.3447 549.699 60.8615 555.231 54.3358Z" fill="white"/>
<path d="M323.11 448.141C313.969 445.287 301.458 456.722 311.775 469.568C322.081 482.787 343.538 505.557 394.013 495.251C424.511 486.936 413.862 460.428 400.031 454.115C386.2 447.802 375.853 460.774 358.434 463.577C341.015 466.379 332.247 450.995 323.11 448.141Z" fill="white" stroke="#161617" stroke-width="2.92483" stroke-linecap="round" stroke-linejoin="round"/>
<path d="M251.754 316.722C253.646 302.699 252.975 275.627 243.568 263.175C256.035 275.435 296.854 301.766 316.644 314.343C301.157 339.233 267.675 326.787 251.751 316.722H251.754Z" fill="#161617"/>
<path d="M603.018 142.175C565.225 137.871 532.478 154.183 516.671 158.508C533.66 152.775 554.716 136.78 601.05 139.097C647.544 141.422 661.284 180.166 659.675 191.174C660.173 174.404 643.048 146.734 603.018 142.175Z" fill="white"/>
<path d="M298.969 514.965L274.275 528.662L343.863 551.577L379.676 538.071L323.662 501.268L298.969 514.965Z" fill="#161617"/>
<path d="M112.167 195.325L104.037 176.162M104.037 176.162L115.651 170.645V163.096M104.037 176.162L94.7458 156.709L101.133 150.902M553.109 411.432L563.568 411.923L582.28 415.496M582.28 415.496V425.368H592.152M582.28 415.496L596.217 406.786L599.701 396.914M557.635 301.863L566.986 296.964V287.613L579.9 285.386M579.9 285.386L585.244 277.371M579.9 285.386L592.152 287.613M107.878 451.205L89.5332 456.164L84.0805 447.735L68.2139 437.819L72.1799 425.368" stroke="white" stroke-width="2.61312" stroke-linecap="round" stroke-linejoin="round"/>
<path d="M184.146 525.716L236.436 509.186L274.276 528.662L298.97 514.965L323.663 501.269L379.677 538.071H423.416" stroke="white" stroke-width="2.61312" stroke-linecap="round" stroke-linejoin="round"/>
<path fill-rule="evenodd" clip-rule="evenodd" d="M81.3264 25.6658C78.5819 24.2907 75.3622 24.2327 72.57 25.508L56.1993 32.9851C54.7999 33.6242 53.5643 34.5733 52.5859 35.7606L35.9668 55.9284L55.8395 74.8929C58.0257 76.9792 61.0284 77.9819 64.0295 77.6278L98.6194 73.5468C103.048 73.0242 106.616 69.6699 107.41 65.2816L111.817 40.9423L81.3264 25.6658Z" fill="white"/>
<path d="M111.817 40.9423L107.41 65.2816C106.616 69.6699 103.048 73.0242 98.6194 73.5468L64.0295 77.6278C61.0284 77.9819 58.0257 76.9792 55.8395 74.8929L35.9668 55.9284L34.2975 62.2924C33.5747 65.0481 34.0442 67.9806 35.5913 70.3729L49.2134 91.4373C51.2326 94.5597 54.7986 96.3267 58.5061 96.042L89.805 93.6384C92.2489 93.4507 94.5421 92.3843 96.2604 90.6365L108.613 78.0721C110.454 76.1998 111.497 73.6867 111.522 71.0612L111.817 40.9423Z" fill="#161617"/>
<path d="M111.817 40.9423L81.3264 25.6658C78.5819 24.2907 75.3622 24.2327 72.57 25.508L56.1993 32.9851C54.7999 33.6242 53.5643 34.5733 52.5859 35.7606L35.9668 55.9284M111.817 40.9423L107.41 65.2816C106.616 69.6699 103.048 73.0242 98.6194 73.5468L64.0295 77.6278C61.0284 77.9819 58.0257 76.9792 55.8395 74.8929L35.9668 55.9284M111.817 40.9423L111.522 71.0612C111.497 73.6867 110.454 76.1998 108.613 78.0721L96.2604 90.6365C94.5421 92.3843 92.2489 93.4507 89.805 93.6384L58.5061 96.042C54.7986 96.3267 51.2326 94.5597 49.2134 91.4373L35.5913 70.3729C34.0442 67.9806 33.5747 65.0481 34.2975 62.2924L35.9668 55.9284" stroke="white" stroke-width="2.68458" stroke-linecap="round" stroke-linejoin="round"/>
<path fill-rule="evenodd" clip-rule="evenodd" d="M153.562 492.138C153.072 491.893 152.497 491.882 151.998 492.11L149.073 493.446C148.823 493.56 148.602 493.73 148.427 493.942L145.458 497.545L149.009 500.933C149.399 501.306 149.936 501.485 150.472 501.422L156.652 500.693C157.443 500.6 158.081 500 158.222 499.216L159.01 494.868L153.562 492.138Z" fill="white"/>
<path d="M159.01 494.868L158.222 499.216C158.081 500 157.443 500.6 156.652 500.693L150.472 501.422C149.936 501.485 149.399 501.306 149.009 500.933L145.458 497.545L145.16 498.682C145.031 499.174 145.115 499.698 145.391 500.126L147.825 503.889C148.185 504.447 148.823 504.763 149.485 504.712L155.077 504.283C155.514 504.249 155.923 504.058 156.23 503.746L158.437 501.501C158.766 501.167 158.953 500.718 158.957 500.249L159.01 494.868Z" fill="#161617"/>
<path d="M159.01 494.868L153.562 492.138C153.072 491.893 152.497 491.882 151.998 492.11L149.073 493.446C148.823 493.56 148.602 493.73 148.427 493.942L145.458 497.545M159.01 494.868L158.222 499.216C158.081 500 157.443 500.6 156.652 500.693L150.472 501.422C149.936 501.485 149.399 501.306 149.009 500.933L145.458 497.545M159.01 494.868L158.957 500.249C158.953 500.718 158.766 501.167 158.437 501.501L156.23 503.746C155.923 504.058 155.514 504.249 155.077 504.283L149.485 504.712C148.823 504.763 148.185 504.447 147.825 503.889L145.391 500.126C145.115 499.698 145.031 499.174 145.16 498.682L145.458 497.545" stroke="white" stroke-width="0.479639" stroke-linecap="round" stroke-linejoin="round"/>
<path fill-rule="evenodd" clip-rule="evenodd" d="M137.634 473.391C137.484 473.316 137.307 473.313 137.155 473.383L136.258 473.792C136.182 473.827 136.114 473.879 136.06 473.944L135.15 475.048L136.238 476.087C136.358 476.201 136.523 476.256 136.687 476.237L138.581 476.013C138.823 475.984 139.019 475.801 139.062 475.56L139.304 474.228L137.634 473.391Z" fill="white"/>
<path d="M139.304 474.228L139.062 475.56C139.019 475.801 138.823 475.984 138.581 476.013L136.687 476.237C136.523 476.256 136.358 476.201 136.238 476.087L135.15 475.048L135.059 475.397C135.019 475.548 135.045 475.708 135.13 475.839L135.876 476.993C135.986 477.164 136.181 477.26 136.384 477.245L138.098 477.113C138.232 477.103 138.358 477.045 138.452 476.949L139.128 476.261C139.229 476.158 139.286 476.021 139.287 475.877L139.304 474.228Z" fill="#161617"/>
<path d="M139.304 474.228L137.634 473.391C137.484 473.316 137.307 473.313 137.155 473.383L136.258 473.792C136.182 473.827 136.114 473.879 136.06 473.944L135.15 475.048M139.304 474.228L139.062 475.56C139.019 475.801 138.823 475.984 138.581 476.013L136.687 476.237C136.523 476.256 136.358 476.201 136.238 476.087L135.15 475.048M139.304 474.228L139.287 475.877C139.286 476.021 139.229 476.158 139.128 476.261L138.452 476.949C138.358 477.045 138.232 477.103 138.098 477.113L136.384 477.245C136.181 477.26 135.986 477.164 135.876 476.993L135.13 475.839C135.045 475.708 135.019 475.548 135.059 475.397L135.15 475.048" stroke="white" stroke-width="0.147001" stroke-linecap="round" stroke-linejoin="round"/>
<path fill-rule="evenodd" clip-rule="evenodd" d="M650.136 398.38C649.986 398.304 649.809 398.301 649.657 398.371L648.76 398.78C648.683 398.815 648.616 398.867 648.562 398.932L647.652 400.037L648.74 401.075C648.86 401.189 649.025 401.244 649.189 401.225L651.083 401.001C651.325 400.973 651.521 400.789 651.564 400.549L651.806 399.216L650.136 398.38Z" fill="white"/>
<path d="M651.806 399.216L651.564 400.549C651.521 400.789 651.325 400.973 651.083 401.001L649.189 401.225C649.025 401.244 648.86 401.189 648.74 401.075L647.652 400.037L647.561 400.385C647.521 400.536 647.547 400.697 647.632 400.828L648.378 401.981C648.488 402.152 648.683 402.249 648.886 402.233L650.6 402.102C650.734 402.091 650.86 402.033 650.954 401.937L651.63 401.249C651.731 401.147 651.788 401.009 651.789 400.865L651.806 399.216Z" fill="#161617"/>
<path d="M651.806 399.216L650.136 398.38C649.986 398.304 649.809 398.301 649.657 398.371L648.76 398.78C648.683 398.815 648.616 398.867 648.562 398.932L647.652 400.037M651.806 399.216L651.564 400.549C651.521 400.789 651.325 400.973 651.083 401.001L649.189 401.225C649.025 401.244 648.86 401.189 648.74 401.075L647.652 400.037M651.806 399.216L651.789 400.865C651.788 401.009 651.731 401.147 651.63 401.249L650.954 401.937C650.86 402.033 650.734 402.091 650.6 402.102L648.886 402.233C648.683 402.249 648.488 402.152 648.378 401.981L647.632 400.828C647.547 400.697 647.521 400.536 647.561 400.385L647.652 400.037" stroke="white" stroke-width="0.147001" stroke-linecap="round" stroke-linejoin="round"/>
<path fill-rule="evenodd" clip-rule="evenodd" d="M634.133 104.327C633.983 104.252 633.806 104.249 633.654 104.318L632.757 104.728C632.681 104.763 632.613 104.815 632.559 104.88L631.649 105.984L632.737 107.023C632.857 107.137 633.022 107.192 633.186 107.172L635.08 106.949C635.322 106.92 635.518 106.737 635.561 106.496L635.803 105.164L634.133 104.327Z" fill="white"/>
<path d="M635.803 105.164L635.561 106.496C635.518 106.737 635.322 106.92 635.08 106.949L633.186 107.172C633.022 107.192 632.857 107.137 632.737 107.023L631.649 105.984L631.558 106.333C631.518 106.484 631.544 106.644 631.629 106.775L632.375 107.929C632.485 108.1 632.68 108.196 632.883 108.181L634.597 108.049C634.731 108.039 634.857 107.98 634.951 107.885L635.627 107.197C635.728 107.094 635.785 106.957 635.787 106.813L635.803 105.164Z" fill="#161617"/>
<path d="M635.803 105.164L634.133 104.327C633.983 104.252 633.806 104.249 633.654 104.318L632.757 104.728C632.681 104.763 632.613 104.815 632.559 104.88L631.649 105.984M635.803 105.164L635.561 106.496C635.518 106.737 635.322 106.92 635.08 106.949L633.186 107.172C633.022 107.192 632.857 107.137 632.737 107.023L631.649 105.984M635.803 105.164L635.787 106.813C635.785 106.957 635.728 107.094 635.627 107.197L634.951 107.885C634.857 107.98 634.731 108.039 634.597 108.049L632.883 108.181C632.68 108.196 632.485 108.1 632.375 107.929L631.629 106.775C631.544 106.644 631.518 106.484 631.558 106.333L631.649 105.984" stroke="white" stroke-width="0.147001" stroke-linecap="round" stroke-linejoin="round"/>
<path fill-rule="evenodd" clip-rule="evenodd" d="M105.039 115.329C104.889 115.254 104.713 115.251 104.56 115.321L103.663 115.73C103.587 115.765 103.519 115.817 103.466 115.882L102.556 116.986L103.644 118.025C103.763 118.139 103.928 118.194 104.092 118.174L105.986 117.951C106.229 117.922 106.424 117.739 106.468 117.498L106.709 116.166L105.039 115.329Z" fill="white"/>
<path d="M106.709 116.166L106.468 117.498C106.424 117.739 106.229 117.922 105.986 117.951L104.092 118.174C103.928 118.194 103.763 118.139 103.644 118.025L102.556 116.986L102.464 117.335C102.425 117.486 102.45 117.646 102.535 117.777L103.281 118.931C103.391 119.102 103.587 119.198 103.79 119.183L105.504 119.051C105.637 119.041 105.763 118.982 105.857 118.887L106.533 118.199C106.634 118.096 106.691 117.959 106.693 117.815L106.709 116.166Z" fill="#161617"/>
<path d="M106.709 116.166L105.039 115.329C104.889 115.254 104.713 115.251 104.56 115.321L103.663 115.73C103.587 115.765 103.519 115.817 103.466 115.882L102.556 116.986M106.709 116.166L106.468 117.498C106.424 117.739 106.229 117.922 105.986 117.951L104.092 118.174C103.928 118.194 103.763 118.139 103.644 118.025L102.556 116.986M106.709 116.166L106.693 117.815C106.691 117.959 106.634 118.096 106.533 118.199L105.857 118.887C105.763 118.982 105.637 119.041 105.504 119.051L103.79 119.183C103.587 119.198 103.391 119.102 103.281 118.931L102.535 117.777C102.45 117.646 102.425 117.486 102.464 117.335L102.556 116.986" stroke="white" stroke-width="0.147001" stroke-linecap="round" stroke-linejoin="round"/>
<path fill-rule="evenodd" clip-rule="evenodd" d="M89.0363 138.333C88.886 138.258 88.7097 138.255 88.5568 138.325L87.6604 138.734C87.5838 138.769 87.5161 138.821 87.4625 138.886L86.5525 139.99L87.6407 141.029C87.7604 141.143 87.9248 141.198 88.0891 141.178L89.9832 140.955C90.2257 140.926 90.4211 140.743 90.4646 140.502L90.7059 139.17L89.0363 138.333Z" fill="white"/>
<path d="M90.7061 139.17L90.4648 140.502C90.4213 140.743 90.2259 140.926 89.9834 140.955L88.0893 141.178C87.925 141.198 87.7606 141.143 87.6409 141.029L86.5527 139.99L86.4613 140.339C86.4217 140.49 86.4474 140.65 86.5321 140.781L87.2781 141.935C87.3886 142.106 87.5839 142.202 87.7869 142.187L89.5007 142.055C89.6346 142.045 89.7601 141.987 89.8542 141.891L90.5306 141.203C90.6314 141.1 90.6885 140.963 90.6899 140.819L90.7061 139.17Z" fill="#161617"/>
<path d="M90.7061 139.17L89.0365 138.333C88.8862 138.258 88.7099 138.255 88.557 138.325L87.6606 138.734C87.584 138.769 87.5163 138.821 87.4627 138.886L86.5527 139.99M90.7061 139.17L90.4648 140.502C90.4213 140.743 90.2259 140.926 89.9834 140.955L88.0893 141.178C87.925 141.198 87.7606 141.143 87.6409 141.029L86.5527 139.99M90.7061 139.17L90.6899 140.819C90.6885 140.963 90.6314 141.1 90.5306 141.203L89.8542 141.891C89.7601 141.987 89.6346 142.045 89.5007 142.055L87.7869 142.187C87.5839 142.202 87.3886 142.106 87.2781 141.935L86.5321 140.781C86.4474 140.65 86.4217 140.49 86.4613 140.339L86.5527 139.99" stroke="white" stroke-width="0.147001" stroke-linecap="round" stroke-linejoin="round"/>
<path fill-rule="evenodd" clip-rule="evenodd" d="M118.418 500.37C118.596 499.103 118.19 497.823 117.314 496.89L112.18 491.419C111.741 490.951 111.201 490.589 110.602 490.361L100.421 486.481L95.5755 496.858C95.0425 498 95.0463 499.319 95.5859 500.458L101.805 513.579C102.602 515.26 104.402 516.222 106.241 515.952L116.444 514.451L118.418 500.37Z" fill="white"/>
<path d="M116.444 514.451L106.241 515.952C104.402 516.222 102.602 515.26 101.805 513.579L95.586 500.458C95.0464 499.319 95.0426 498 95.5756 496.858L100.421 486.481L97.6844 486.669C96.4995 486.751 95.4035 487.327 94.6644 488.257L88.157 496.444C87.1924 497.658 86.9693 499.302 87.5756 500.728L92.6939 512.773C93.0935 513.714 93.8203 514.478 94.7396 514.924L101.349 518.13C102.333 518.608 103.465 518.685 104.506 518.346L116.444 514.451Z" fill="#161617"/>
<path d="M116.444 514.451L118.418 500.37C118.596 499.103 118.19 497.823 117.314 496.89L112.18 491.419C111.741 490.951 111.201 490.589 110.602 490.361L100.421 486.481M116.444 514.451L106.241 515.952C104.402 516.222 102.602 515.26 101.805 513.579L95.586 500.458C95.0464 499.319 95.0426 498 95.5756 496.858L100.421 486.481M116.444 514.451L104.506 518.346C103.465 518.685 102.333 518.608 101.349 518.13L94.7396 514.924C93.8203 514.478 93.0935 513.714 92.6939 512.773L87.5756 500.728C86.9693 499.302 87.1924 497.658 88.157 496.444L94.6644 488.257C95.4035 487.327 96.4995 486.751 97.6844 486.669L100.421 486.481" stroke="white" stroke-width="1.11923" stroke-linecap="round" stroke-linejoin="round"/>
<path fill-rule="evenodd" clip-rule="evenodd" d="M34.4395 118.74C30.9955 115.115 25.4232 114.541 21.3124 117.388L12.2705 123.65L21.3312 138.873C23.0181 141.708 25.9778 143.545 29.2663 143.798L31.9645 144.006C35.6957 144.294 39.2822 142.504 41.2947 139.349L46.4056 131.336L34.4395 118.74Z" fill="white"/>
<path d="M46.4058 131.336L41.2949 139.349C39.2824 142.504 35.6959 144.294 31.9647 144.006L29.2665 143.798C25.978 143.545 23.0183 141.708 21.3314 138.873L12.2707 123.65L11.1705 131.651C10.9101 133.545 11.1903 135.474 11.9787 137.215L17.1203 148.573C18.5293 151.685 21.4107 153.879 24.7859 154.409L31.8179 155.514C35.086 156.027 38.399 154.914 40.6944 152.532L44.6208 148.457C46.7117 146.287 47.7294 143.3 47.398 140.305L46.4058 131.336Z" fill="#161617"/>
<path d="M46.4058 131.336L34.4397 118.74C30.9957 115.115 25.4234 114.541 21.3126 117.388L12.2707 123.65M46.4058 131.336L41.2949 139.349C39.2824 142.504 35.6959 144.294 31.9647 144.006L29.2665 143.798C25.978 143.545 23.0183 141.708 21.3314 138.873L12.2707 123.65M46.4058 131.336L47.398 140.305C47.7294 143.3 46.7117 146.287 44.6208 148.457L40.6944 152.532C38.399 154.914 35.086 156.027 31.8179 155.514L24.7859 154.409C21.4107 153.879 18.5293 151.685 17.1203 148.573L11.9787 137.215C11.1903 135.474 10.9101 133.545 11.1705 131.651L12.2707 123.65" stroke="white" stroke-width="2.68458" stroke-linecap="round" stroke-linejoin="round"/>
<path fill-rule="evenodd" clip-rule="evenodd" d="M601.981 457.471C596.987 457.211 592.549 460.628 591.525 465.523L587.3 485.718L615.17 493.583C618.345 494.479 621.756 493.775 624.317 491.696L631.754 485.659C634.659 483.3 636.03 479.533 635.319 475.859L632.066 459.042L601.981 457.471Z" fill="white"/>
<path d="M632.066 459.042L635.319 475.859C636.03 479.533 634.659 483.3 631.754 485.659L624.317 491.696C621.756 493.775 618.345 494.479 615.17 493.583L587.3 485.718L595.146 496.655C596.26 498.209 597.791 499.415 599.561 500.137L620.563 508.692C623.727 509.98 627.327 509.59 630.141 507.652L643.205 498.655C645.93 496.778 647.568 493.691 647.594 490.383L647.701 477.046C647.725 474.033 646.408 471.165 644.107 469.22L632.066 459.042Z" fill="#161617"/>
<path d="M632.066 459.042L601.981 457.471C596.987 457.211 592.549 460.628 591.525 465.523L587.3 485.718M632.066 459.042L635.319 475.859C636.03 479.533 634.659 483.3 631.754 485.659L624.317 491.696C621.756 493.775 618.345 494.479 615.17 493.583L587.3 485.718M632.066 459.042L644.107 469.22C646.408 471.165 647.725 474.033 647.701 477.046L647.594 490.383C647.568 493.691 645.93 496.778 643.205 498.655L630.141 507.652C627.327 509.59 623.727 509.98 620.563 508.692L599.561 500.137C597.791 499.415 596.26 498.209 595.146 496.655L587.3 485.718" stroke="white" stroke-width="2.68458" stroke-linecap="round" stroke-linejoin="round"/>
<path fill-rule="evenodd" clip-rule="evenodd" d="M666.298 408.688C665.004 407.325 662.911 407.11 661.366 408.179L657.968 410.532L661.373 416.253C662.007 417.318 663.119 418.008 664.355 418.103L665.368 418.182C666.77 418.29 668.118 417.617 668.874 416.431L670.795 413.421L666.298 408.688Z" fill="white"/>
<path d="M670.795 413.421L668.874 416.431C668.118 417.617 666.77 418.29 665.368 418.182L664.355 418.103C663.119 418.008 662.007 417.318 661.373 416.253L657.968 410.532L657.555 413.539C657.457 414.251 657.562 414.975 657.859 415.63L659.791 419.898C660.32 421.067 661.403 421.891 662.671 422.091L665.313 422.506C666.541 422.698 667.786 422.28 668.649 421.385L670.124 419.854C670.91 419.039 671.292 417.916 671.168 416.791L670.795 413.421Z" fill="#161617"/>
<path d="M670.795 413.421L666.298 408.688C665.004 407.325 662.911 407.11 661.366 408.179L657.968 410.532M670.795 413.421L668.874 416.431C668.118 417.617 666.77 418.29 665.368 418.182L664.355 418.103C663.119 418.008 662.007 417.318 661.373 416.253L657.968 410.532M670.795 413.421L671.168 416.791C671.292 417.916 670.91 419.039 670.124 419.854L668.649 421.385C667.786 422.28 666.541 422.698 665.313 422.506L662.671 422.091C661.403 421.891 660.32 421.067 659.791 419.898L657.859 415.63C657.562 414.975 657.457 414.251 657.555 413.539L657.968 410.532" stroke="white" stroke-width="1.00876" stroke-linecap="round" stroke-linejoin="round"/>
<path fill-rule="evenodd" clip-rule="evenodd" d="M608.144 114.408C606.616 114.454 605.349 115.607 605.16 117.124L604.744 120.46L610.06 121.498C611.049 121.692 612.071 121.392 612.799 120.694L613.396 120.122C614.222 119.33 614.545 118.148 614.237 117.046L613.452 114.249L608.144 114.408Z" fill="white"/>
<path d="M613.452 114.249L614.237 117.046C614.545 118.148 614.222 119.33 613.396 120.122L612.799 120.694C612.071 121.392 611.049 121.692 610.06 121.498L604.744 120.46L606.343 122.342C606.722 122.787 607.218 123.116 607.776 123.292L611.412 124.435C612.408 124.748 613.495 124.539 614.304 123.878L615.988 122.5C616.771 121.86 617.193 120.878 617.118 119.87L616.99 118.145C616.921 117.226 616.448 116.385 615.698 115.851L613.452 114.249Z" fill="#161617"/>
<path d="M613.452 114.249L608.144 114.408C606.616 114.454 605.349 115.607 605.16 117.124L604.744 120.46M613.452 114.249L614.237 117.046C614.545 118.148 614.222 119.33 613.396 120.122L612.799 120.694C612.071 121.392 611.049 121.692 610.06 121.498L604.744 120.46M613.452 114.249L615.698 115.851C616.448 116.385 616.921 117.226 616.99 118.145L617.118 119.87C617.193 120.878 616.771 121.86 615.988 122.5L614.304 123.878C613.495 124.539 612.408 124.748 611.412 124.435L607.776 123.292C607.218 123.116 606.722 122.787 606.343 122.342L604.744 120.46" stroke="white" stroke-width="0.82069" stroke-linecap="round" stroke-linejoin="round"/>
<path fill-rule="evenodd" clip-rule="evenodd" d="M624.194 77.4366C626.1 74.663 625.7 70.9139 623.252 68.6047L617.867 63.5255L609.108 71.6163C607.477 73.1227 606.681 75.3278 606.973 77.5285L607.213 79.334C607.544 81.8309 609.224 83.9424 611.582 84.8271L617.571 87.0738L624.194 77.4366Z" fill="white"/>
<path d="M617.571 87.0738L611.582 84.8271C609.224 83.9424 607.544 81.8309 607.213 79.334L606.973 77.5285C606.681 75.3278 607.477 73.1227 609.108 71.6163L617.867 63.5255L612.445 63.918C611.162 64.0109 609.931 64.4646 608.894 65.2268L602.134 70.1976C600.281 71.5598 599.239 73.7633 599.361 76.0595L599.616 80.8438C599.734 83.0672 600.929 85.0932 602.818 86.272L606.049 88.2884C607.77 89.3622 609.879 89.6153 611.804 88.979L617.571 87.0738Z" fill="#161617"/>
<path d="M617.571 87.0738L624.194 77.4366C626.1 74.663 625.7 70.9139 623.252 68.6047L617.867 63.5255M617.571 87.0738L611.582 84.8271C609.224 83.9424 607.544 81.8309 607.213 79.334L606.973 77.5285C606.681 75.3278 607.477 73.1227 609.108 71.6163L617.867 63.5255M617.571 87.0738L611.804 88.979C609.879 89.6153 607.77 89.3622 606.049 88.2884L602.818 86.272C600.929 85.0932 599.734 83.0672 599.616 80.8438L599.361 76.0595C599.239 73.7633 600.281 71.5598 602.134 70.1976L608.894 65.2268C609.931 64.4646 611.162 64.0109 612.445 63.918L617.867 63.5255" stroke="white" stroke-width="1.80688" stroke-linecap="round" stroke-linejoin="round"/>
</g>
<defs>
<clipPath id="clip0_1787_36676">
<rect width="674" height="552" fill="white"/>
</clipPath>
</defs>
</svg>
