
<svg xmlns="http://www.w3.org/2000/svg" fill="#ffe900" stroke="3" viewBox="0 0 66 66"><path d="M64.799 43.387c-.141-7.769-.279-15.76-.306-23.715a.498.498 0 0 0-.002-.709c-.003-1.173-.011-2.347-.008-3.517.015-5.949-1.56-8.398-8.762-8.704a617.714 617.714 0 0 0-49.035-.123C2.298 6.785.984 8.24 1.024 12.605l.378 41.515c.04 4.38 1.481 5.688 5.545 5.688h.08l51.781-.113c4.87-.008 6.237-1.659 6.167-6.2a3354.7 3354.7 0 0 0-.176-10.108zm-.871 7.442-.208-.209.201-.201.007.41zm-.192-11.037.027 1.526-1.049-1.048.75-.749.272.271zm.064 3.614.01.556-.674-.674.65-.65.014.768zm.072 4.187-.866-.866.837-.837.029 1.703zM6.723 7.619a617.209 617.209 0 0 1 48.957.123c6.648.279 7.817 2.316 7.804 7.702-.003 1.125.005 2.254.008 3.382l-61.406.627-.063-6.857c-.034-3.857.92-4.837 4.7-4.977zm.302 51.189c-3.56.015-4.588-.839-4.623-4.698l-.307-33.657 61.399-.627c.02 5.623.091 11.26.186 16.825l-.847.847a.25.25 0 1 0 .353.354l.506-.506.022 1.218-.25.25-.797-.797a.25.25 0 1 0-.353.354l.797.797-.927.926-.064.064a.25.25 0 0 0 .177.427c.007 0 .012-.007.018-.007l1.413 1.412-.945.944-.115-.115a.25.25 0 1 0-.353.354l.115.115-.18.18a.25.25 0 1 0 .354.354l.18-.18 1.04 1.04.009.514-1.178 1.178-.245-.245a.25.25 0 1 0-.354.354l.245.245-.7.699a.25.25 0 1 0 .354.354l.7-.699 1.232 1.232.024 1.411-.543.543-1.218-1.218a.25.25 0 1 0-.354.354l1.218 1.218-.829.829a.249.249 0 0 0 0 .353.249.249 0 0 0 .353 0l.829-.829.575.574c.011.655.024 1.307.034 1.962.004.246.004.493 0 .739l-2.93-2.93c-.016-.016-.039-.013-.057-.024.043-.093.045-.201-.032-.277a.25.25 0 0 0-.354 0l-1.339 1.339a.24.24 0 0 0-.195.066.243.243 0 0 0-.066.195l-1.802 1.802-.764-.764a.25.25 0 1 0-.354.354l.764.764-1.658 1.658-1.657-1.658 2.497-2.497a.25.25 0 1 0-.354-.354l-4.055 4.055-.44-.44a.25.25 0 1 0-.354.354l.44.44-1.041 1.041-.977-.977 2.39-2.39a.25.25 0 1 0-.354-.354l-2.396 2.396a.247.247 0 0 0-.333.008.246.246 0 0 0-.009.333l-1.275 1.275-.958-.959a.25.25 0 1 0-.354.354l.958.958-.504.504a.24.24 0 0 0-.064.2l-1.285.003c-.008-.011-.005-.027-.015-.037l-.702-.703 2.683-2.683a.25.25 0 1 0-.354-.353l-2.683 2.683-.537-.537a.25.25 0 1 0-.354.353l.537.538-.744.744-.715.002c.006-.005.014-.003.019-.008a.25.25 0 0 0 0-.354l-.449-.449 1.639-1.639a.25.25 0 1 0-.353-.354l-1.639 1.639-.472-.473a.25.25 0 1 0-.354.353l.472.473-.815.815-2.153.005.336-.336.215.215a.249.249 0 0 0 .354 0 .25.25 0 0 0 0-.354l-.215-.215 1.488-1.488a.25.25 0 1 0-.354-.354l-1.488 1.488-.472-.473a.25.25 0 1 0-.354.354l.472.473-.667.667c-.007.007-.004.017-.01.025l-30.355.066zm56.588-2.195-1.775-1.775.959-.959c.019-.02.017-.047.029-.071l1.047 1.047c.021.021.051.02.076.032-.038.616-.134 1.206-.336 1.726zm-12.048 2.098-.985-.985 1.041-1.041 1.658 1.657-.05.05c-.087.087-.084.217-.016.315l-1.648.004zm-3.238.007-.7-.7 1.269-1.269.977.977-.602.602a.25.25 0 0 0 0 .354c.023.023.055.022.083.034l-1.027.002zm-.706.001-.698.001.35-.35.348.349zm2.003-.038.602-.602.633.633-1.317.003c.028-.012.06-.011.082-.034zm3.555-3.554 1.657 1.658-1.204 1.204-1.658-1.657 1.205-1.205zm.453 3.568.011.011h-.022l.011-.011zm.652-.055-.298-.298 1.204-1.204 1.561 1.561-2.44.005c-.011-.02-.009-.046-.027-.064zm1.259-1.856 1.658-1.658 1.821 1.821-1.658 1.658-1.821-1.821zm2.012-2.011 1.756-1.756 1.821 1.821-1.756 1.756-1.821-1.821zm2.109-2.109 1.017-1.017c.006.008.003.019.01.026l1.823 1.823c-.023.012-.051.01-.07.029l-.96.959-1.82-1.82zm-15.281 6.062-.776.002.389-.389.387.387zm-2.512.006-.93.002.46-.46.449.449c.006.006.015.004.021.009zm16.935-.037-.826.002 1.396-1.396 1.243 1.243c.03.03.07.033.108.045-.617.085-1.271.105-1.921.106zm2.144-.143c.006-.005.016-.003.022-.009a.25.25 0 0 0 0-.354l-1.243-1.243 1.755-1.756 1.899 1.899c-.533.903-1.393 1.285-2.433 1.463z"/><path d="M21.893 16.211c.319.119.643.164.958.164.482 0 .942-.105 1.33-.216 1.188-.336 1.943-.892 2.311-1.699.391-.858.27-1.983-.3-2.799-1.251-1.792-3.956-1.529-5.204-.366-1.563 1.457-.922 4.232.905 4.916zm.35-.937a1.465 1.465 0 0 1-.455-.283l.742-.742 1.035 1.035c-.427.096-.905.146-1.322-.01zm1.816-.129c-.034-.147-1.069-1.142-1.176-1.249l.778-.778.584.584-.425.425a.25.25 0 1 0 .354.354l.425-.425.53.53c.004.004.011.003.016.007-.263.222-.619.405-1.086.552zm1.523-1.099c-.028.062-.075.115-.111.173l-.518-.517.718-.718c.071.369.053.749-.089 1.062zm-3.912-2.018c.954-.889 2.9-.942 3.702.206.048.069.078.15.116.225l-.889.889L24 12.75c.062-.097.065-.221-.02-.306-.085-.084-.209-.081-.306-.02l-.01-.011a.25.25 0 0 0-.356.349l-.78.78-.068-.068a.25.25 0 1 0-.354.354l.068.068-.712.712c-.552-.844-.46-1.959.208-2.58zM13.979 16.211c.741.277 1.525.166 2.289-.052 1.188-.336 1.943-.892 2.31-1.699.391-.858.27-1.983-.3-2.799-.508-.728-1.325-1.189-2.241-1.269-1.92-.17-3.88.881-3.847 3.09.018 1.201.771 2.349 1.789 2.729zm2.256-1.466a.249.249 0 0 0 .353 0l.302-.302.238.238c-.244.18-.566.329-.958.455l-.619-.619.707-.707.278.279-.302.302a.25.25 0 0 0 .001.354zm1.433-.699a1.61 1.61 0 0 1-.182.284l-.241-.241.546-.546c-.017.178-.053.35-.123.503zm-1.718-2.657c.621.054 1.17.361 1.508.845.138.197.222.427.278.662-.002.002-.007.001-.009.004l-.836.836-.279-.279.109-.108a.25.25 0 1 0-.354-.354l-.108.108-.099-.099a.25.25 0 1 0-.353.354l.099.099-.707.707-.446-.445a.249.249 0 0 0-.353 0 .249.249 0 0 0 0 .353l.446.446-.139.139a.25.25 0 1 0 .353.354l.139-.139.421.421c-.418.091-.884.134-1.29-.018-.638-.238-1.127-1.015-1.139-1.807-.024-1.587 1.437-2.192 2.759-2.079zM5.924 16.211c.319.119.644.164.958.164.482 0 .942-.105 1.33-.216 1.188-.336 1.943-.892 2.311-1.699.39-.859.269-1.984-.3-2.799-1.255-1.798-3.96-1.524-5.204-.366-1.563 1.457-.921 4.232.905 4.916zm.35-.937c-.082-.031-.153-.092-.23-.14l.709-.71.857.856c-.43.098-.914.152-1.336-.006zm3.429-1.548-.197-.197.232-.232c.004.147-.006.29-.035.429zm-4.002-1.698c.954-.889 2.9-.942 3.702.206.098.14.173.297.23.46l-.481.481-.231-.231c-.098-.098-.256-.098-.353 0s-.098.256 0 .354l.231.231-.578.578a.25.25 0 1 0 .354.353l.578-.578.21.21a.245.245 0 0 0 .174.072c-.244.427-.702.741-1.418.97-.012-.031-.012-.065-.038-.09l-.974-.974.893-.892a.25.25 0 1 0-.354-.354l-.919.92c-.089-.034-.189-.034-.261.038-.072.072-.073.172-.038.261l-.764.764c-.756-.874-.67-2.121.037-2.779zM39.619 14.521a.5.5 0 0 0 .5-.5v-1.896a.5.5 0 0 0-1 0v1.896a.5.5 0 0 0 .5.5zM44.222 14.483a.5.5 0 0 0 .5-.5v-1.949a.5.5 0 0 0-1 0v1.949a.5.5 0 0 0 .5.5zM48.824 14.524a.5.5 0 0 0 .5-.5v-2.035a.5.5 0 0 0-1 0v2.035a.5.5 0 0 0 .5.5zM53.743 14.756a.5.5 0 0 0 .5-.5v-2.223a.5.5 0 0 0-1 0v2.223c0 .277.223.5.5.5zM58.165 14.747a.5.5 0 0 0 .5-.5v-2.258a.5.5 0 0 0-1 0v2.258a.5.5 0 0 0 .5.5zM42.355 42.641c2.917-.153 6.013-.381 9.609-.625a83.536 83.536 0 0 1-.074 3.837.5.5 0 0 0 .478.522h.022a.5.5 0 0 0 .499-.477 84.32 84.32 0 0 0 .075-3.948c1.228-.08 2.434-.153 3.598-.215a.5.5 0 0 0 .474-.525c-.015-.275-.256-.502-.525-.473-1.15.06-2.341.133-3.552.212-.039-4.065-.254-8.201-.069-12.383.022-.497-.615-.709-.901-.32l-10.061 13.6c-.262.351.031.836.427.795zm2.159-1.128.209-.209c.017.004.031.02.048.02a.249.249 0 0 0 .177-.073c.062-.062.07-.145.053-.225l.863-.863a.25.25 0 1 0-.354-.354l-.826.825-.356-.356 1.03-1.392.604.605a.25.25 0 1 0 .353-.354l-.655-.657 1.03-1.392.552.552a.25.25 0 1 0 .354-.354l-.605-.604 1.03-1.392.351.351-.449.449a.25.25 0 1 0 .354.354l.449-.449.082.082a.25.25 0 1 0 .354-.354l-.082-.082 1.001-1.001c.081-.081.078-.197.026-.292.027-.012.059-.011.081-.034a.25.25 0 0 0 0-.354l-.68-.68.643-.869.506.506a.25.25 0 1 0 .354-.354l-.559-.558.715-.967.414.414a.249.249 0 0 0 .177.073c.027 0 .05-.022.076-.031-.026 3.764.098 6.42.127 9.519-2.641.179-4.674.329-7.447.5zm4.691-7.825.575.575c-.018.01-.04.008-.056.023l-1.001 1.001-.404-.404.886-1.195zm2.628-2.687-.368-.368.371-.502c-.006.292.001.579-.003.87zm-7.804 9.684.303.303-.278.278c-.077.077-.075.185-.032.277-.217.013-.444.029-.659.041l.666-.899zM23.855 40.737c-1.15.06-2.341.133-3.552.212-.039-4.073-.254-8.202-.069-12.383.022-.496-.612-.711-.901-.32l-2.447 3.308c-.087-.029-.181-.026-.25.043-.087.087-.084.219-.015.316l-7.348 9.933c-.261.351.032.838.428.796 2.917-.153 6.013-.381 9.609-.625a83.536 83.536 0 0 1-.074 3.837.5.5 0 0 0 .478.522l.022.001a.5.5 0 0 0 .499-.477 84.32 84.32 0 0 0 .075-3.948c1.227-.08 2.434-.153 3.598-.215a.5.5 0 0 0 .474-.525c-.016-.278-.266-.504-.527-.475zm-4.676-9.864-.233.233-.279-.279.515-.696c-.006.249 0 .494-.003.742zm-5.942 7.293.639.639c.009.009.022.006.031.013l-1.334 1.334-.463-.463 1.127-1.523zm-1.427 1.929.41.41-.591.591a.25.25 0 0 0 0 .354.247.247 0 0 0 .162.067c-.359.022-.729.047-1.083.068l1.102-1.49zm.016 1.42a.248.248 0 0 0 .157-.065l.591-.592.06.06a.25.25 0 1 0 .354-.354l-.06-.06 1.687-1.688a.25.25 0 1 0-.354-.354l-.018.018c-.007-.009-.004-.022-.013-.031l-.692-.691 1.102-1.49.573.572a.25.25 0 1 0 .354-.354l-.625-.625 1.175-1.588.371.371-.705.705a.25.25 0 1 0 .353.354l.746-.746c.082.012.135.016.211-.059.058-.058.07-.135.059-.211l.634-.634a.25.25 0 1 0-.354-.354l-.592.592-.423-.424.909-1.228.618.618a.25.25 0 1 0 .353-.354l-.671-.671.74-1 .226.226-.42.42a.25.25 0 1 0 .354.354l.421-.42c.113.113.117.132.229.179-.008 3.756.1 5.977.129 9.022-2.643.179-4.715.332-7.479.502zM39.054 40.4c.273-2.333.583-4.978-.261-7.421-1.904-5.514-8.546-6.045-10.601-.17-.581 1.658-.627 3.438-.672 5.158a52.718 52.718 0 0 1-.053 1.507c-.13 2.379.745 4.792 2.281 6.298 1.852 1.814 4.784 2.176 6.672.829 1.922-1.369 2.368-3.919 2.634-6.201zm-5.838-10.802.052-.003-.028.028-.024-.025zm-4.666 7.464c.008.016.008.034.02.048l-.022.022.002-.07zm.182 4.664c-.02-.02-.049-.019-.074-.03a7.896 7.896 0 0 1-.165-1.067l.283-.283 1.045 1.045c.035.035.082.043.127.053l-.75.749-.466-.467zm-.201-2.333c-.016-.016-.04-.014-.06-.025.022-.454.037-.912.049-1.376l.004-.13.393-.393 1.162 1.162c-.097-.066-.226-.069-.313.017l-.99.99-.245-.245zm.379-2.623a.246.246 0 0 0-.331.009c-.015.014-.012.036-.022.053.024-.58.074-1.155.147-1.723.022-.012.049-.009.067-.028l.185-.185.914.914-.96.96zm.024-2.558c-.026-.012-.05-.03-.078-.032.075-.353.162-.703.28-1.04h.001c.056-.16.126-.32.199-.481l.576.576-.978.977zm6.907 11.575c-1.483 1.058-3.902.731-5.392-.729-.568-.556-1.024-1.263-1.361-2.047l.11-.11.375.375a.25.25 0 1 0 .353-.354l-.375-.375 1.195-1.194a.25.25 0 1 0-.354-.354l-.166.166c-.01-.045-.017-.092-.053-.127l-1.045-1.045.99-.99a.247.247 0 0 0 .004-.343c.123.093.24.071.323-.012a.25.25 0 0 0 0-.354l-1.177-1.177.954-.954.274.275a.25.25 0 1 0 .354-.354l-.274-.274.437-.437a.25.25 0 1 0-.354-.354l-.437.437-.914-.914.954-.954.881.881a.25.25 0 1 0 .354-.354l-.881-.881.653-.653a.25.25 0 1 0-.353-.354l-.653.653-.691-.691c.264-.476.59-.934.982-1.328l2.127 2.127a.25.25 0 1 0 .354-.353l-2.104-2.104a4.035 4.035 0 0 1 1.671-.84l.285.285-.768.769a.25.25 0 1 0 .354.354l.768-.769.653.653a.25.25 0 1 0 .353-.354l-.653-.653.244-.244c.024-.024.024-.058.036-.087 1.853.271 3.384 1.953 3.974 3.66.77 2.228.474 4.751.213 6.979-.253 2.164-.633 4.371-2.22 5.503zM43.486 28.364l1.212-1.212.355.355a.25.25 0 1 0 .354-.354l-.355-.355.842-.843.577.577a.25.25 0 1 0 .354-.354l-.577-.577 1.145-1.145a.25.25 0 1 0-.354-.354l-1.145 1.145-.402-.402a.25.25 0 1 0-.354.354l.402.402-.842.843-.518-.518a.25.25 0 1 0-.354.354l.518.518-1.212 1.212a.25.25 0 1 0 .354.354zM13.31 47.876l-1.371 1.371-.402-.402a.25.25 0 1 0-.354.354l.402.402-1.228 1.229-.595-.595a.25.25 0 1 0-.354.354l.595.595-1.289 1.289a.25.25 0 1 0 .353.354l1.289-1.289.809.809a.25.25 0 1 0 .353-.354l-.809-.809 1.228-1.229.514.514a.25.25 0 1 0 .354-.354l-.514-.514 1.371-1.371a.249.249 0 0 0 0-.353.248.248 0 0 0-.352-.001zM10.071 32.299l1.637-1.637.274.274a.25.25 0 1 0 .354-.354l-.274-.274 1.151-1.151.615.615a.25.25 0 1 0 .354-.353l-.615-.615.598-.598a.25.25 0 1 0-.354-.354l-.598.598-.363-.363a.25.25 0 1 0-.354.354l.363.363-1.151 1.151-.402-.402a.25.25 0 1 0-.354.354l.402.402-1.637 1.637a.25.25 0 1 0 .354.353z"/></svg>