<svg width="1030" height="194" viewBox="0 0 1030 194" fill="none" xmlns="http://www.w3.org/2000/svg">
<rect x="1.5" y="-1.5" width="495.649" height="189.93" rx="94.9649" transform="matrix(1 8.74228e-08 8.74228e-08 -1 530.488 190)" stroke="#101010" stroke-width="3"/>
<path d="M718.442 95.675C718.442 43.6533 676.583 1.5003 624.971 1.5003C573.359 1.50029 531.5 43.6533 531.5 95.6749C531.5 147.697 573.359 189.85 624.971 189.85C676.583 189.85 718.442 147.697 718.442 95.675Z" stroke="#101010" stroke-width="3"/>
<path d="M623.491 0.071167L623.491 192.012" stroke="#101010" stroke-width="3"/>
<path d="M1029.14 96.0413H719.461" stroke="#101010" stroke-width="3"/>
<rect width="337" height="193" rx="96.5" transform="matrix(1 8.74228e-08 8.74228e-08 -1 192.996 193)" fill="#B19BFD"/>
<ellipse rx="66.8377" ry="66.1523" transform="matrix(1 8.74228e-08 8.74228e-08 -1 287.612 95.7107)" fill="#F8F8F8"/>
<circle r="96.5357" transform="matrix(1 8.74228e-08 8.74228e-08 -1 96.5357 96.5361)" fill="#FF7B43"/>
<path d="M62.0088 129.654L129.654 62.0088" stroke="#F8F8F8" stroke-width="4" stroke-linecap="round" stroke-linejoin="round"/>
<path d="M129.654 125.785V62.0088H65.8779" stroke="#F8F8F8" stroke-width="4" stroke-linecap="round" stroke-linejoin="round"/>
</svg>
