
<svg xmlns="http://www.w3.org/2000/svg" viewBox="0 0 1000 1000"><path fill="#b1bec6" d="m839.01,332.12l-24.92,40.71c12.33-20.22,5.96-46.59-14.25-58.97L488.81,123.46c-20.23-12.37-46.66-6.03-59.04,14.21l24.96-40.79c12.39-20.23,38.82-26.59,59.05-14.2l311.04,190.4c20.23,12.37,26.59,38.81,14.2,59.04Z" opacity=".25"/><path fill="#b1bec6" d="m815.8,373.87l-3.41-2.09c11.73-19.23,5.63-44.45-13.58-56.22L487.76,125.16c-9.33-5.71-20.32-7.44-30.95-4.88-10.63,2.56-19.63,9.1-25.34,18.44h0s-3.41-2.09-3.41-2.09h0s24.96-40.79,24.96-40.79c12.94-21.14,40.67-27.81,61.8-14.86l311.04,190.4c10.24,6.26,17.42,16.14,20.23,27.81s.9,23.74-5.37,33.98l-24.92,40.7s0,0,0,0h0ZM466.47,115.12c8.18,0,16.23,2.25,23.38,6.63l311.04,190.4c15.49,9.49,23.22,26.94,21.12,43.91l15.3-24.98c5.71-9.33,7.45-20.32,4.89-30.95-2.56-10.63-9.1-19.63-18.43-25.34l-311.04-190.4c-19.25-11.79-44.51-5.71-56.3,13.54l-15.25,24.92c4.41-2.98,9.36-5.18,14.69-6.46,3.52-.85,7.07-1.26,10.6-1.26Z"/><path fill="#b1bec6" d="m799.84,313.86L488.81,123.46c-20.22-12.37-46.67-6.03-59.04,14.21l-15.12,24.71c4.46,3.77,8.61,7.8,12.41,12.01l13.39-21.88c.5-.84,1.05-1.63,1.63-2.38.18-.26.39-.51.59-.76.59-.73,1.21-1.43,1.88-2.09.21-.23.44-.44.66-.65.08-.08.14-.13.23-.21h.01v-.02c9.21-8.51,23.31-10.27,34.55-3.39l306.46,187.59c13.55,8.3,17.81,26,9.52,39.56l-21.98,35.9-10.55,17.23h.13c6.2,0,11.61,3.36,14.52,8.35l10.04-16.37,25.93-42.35s.03-.06.04-.09c12.32-20.21,5.95-46.59-14.25-58.97Zm-366.14-9.15l193.69,118.57h27.11l-212.96-130.35c-2.35,4.05-4.96,7.99-7.84,11.78Z" opacity=".5"/><path fill="#b1bec6" d="m778.04,435.54l-1.68-2.9c-2.64-4.54-7.54-7.36-12.79-7.36h-3.7l34.4-56.18c7.7-12.59,3.72-29.1-8.86-36.81l-306.46-187.59c-10.08-6.17-23.14-4.97-31.88,2.92l-.39.77h-.43c-.09.09-.17.18-.26.27-.63.63-1.21,1.28-1.77,1.97-.19.23-.36.44-.51.66-.59.77-1.1,1.51-1.55,2.25l-14.8,24.17-1.79-1.99c-3.74-4.15-7.85-8.13-12.21-11.82l-1.31-1.11,16.01-26.17c6.26-10.24,16.14-17.43,27.82-20.23,11.67-2.81,23.74-.9,33.98,5.36l311.04,190.4c21.04,12.89,27.75,40.48,15,61.57v.04s-37.85,61.77-37.85,61.77Zm-11.21-13.97c4.34.77,8.3,3.06,11.14,6.43l34.38-56.14c11.77-19.31,5.67-44.53-13.54-56.3L487.76,125.17c-9.33-5.71-20.32-7.44-30.95-4.89-10.64,2.56-19.63,9.1-25.34,18.43l-14.23,23.25c3.33,2.9,6.51,5.95,9.49,9.12l12.01-19.62c.52-.86,1.11-1.73,1.75-2.56.16-.23.4-.53.63-.81.63-.78,1.31-1.54,2-2.23.2-.21.44-.44.69-.67l.78-.72c10.05-8.9,24.94-10.22,36.44-3.17l306.46,187.59c14.47,8.86,19.03,27.84,10.18,42.31l-30.85,50.38Z"/><path fill="#b1bec6" d="m661.6,425.28h-34.77l-.48-.29-195.58-119.72,1.33-1.76c2.81-3.71,5.4-7.61,7.7-11.58l1.03-1.77,220.77,135.13Zm-33.64-4h19.45l-205.18-125.59c-1.74,2.88-3.62,5.71-5.62,8.46l191.35,117.13Z"/><path fill="#b1bec6" d="m773.99,406.05l-10.55,17.23h-108.94l-212.96-130.35c8.29-14.41,13.07-30.36,13.45-47.16.01-.73.02-1.46.02-2.2,0-9.54-1.42-18.82-4.1-27.71l303.99,186.1c5.94,3.64,12.66,4.91,19.09,4.09Z" opacity=".75"/><path fill="#b1bec6" d="m795.97,370.15l-21.98,35.9c-6.42.83-13.15-.45-19.09-4.09l-303.99-186.1c-4.36-14.54-12.1-28.04-22.51-39.95.7-2.24,1.69-4.43,2.97-6.52l14.06-22.98h.01v-.02c9.21-8.51,23.31-10.27,34.55-3.39l306.46,187.59c13.55,8.3,17.81,26,9.52,39.56Z"/><path fill="#b1bec6" d="m780.39,440.11v44.47c0,9.3-7.54,16.83-16.83,16.83H203.72c-9.3,0-16.83-7.53-16.83-16.83v-44.47c0-9.29,7.53-16.83,16.83-16.83h559.84c6.2,0,11.61,3.35,14.53,8.35,1.47,2.49,2.3,5.39,2.3,8.48Z" opacity=".25"/><path fill="#b1bec6" d="m763.56,503.41H203.72c-10.38,0-18.83-8.45-18.83-18.83v-44.47c0-10.38,8.45-18.83,18.83-18.83h559.84c6.66,0,12.89,3.58,16.25,9.34,1.68,2.85,2.57,6.13,2.57,9.48v44.47c0,10.38-8.45,18.83-18.83,18.83Zm-559.84-78.12c-8.18,0-14.83,6.65-14.83,14.83v44.47c0,8.18,6.65,14.83,14.83,14.83h559.84c8.18,0,14.83-6.65,14.83-14.83v-44.47c0-2.64-.7-5.22-2.02-7.46-2.65-4.55-7.56-7.37-12.8-7.37H203.72Z"/><path fill="#b1bec6" d="m204.46,501.41l34.1,385.97c1.81,20.49,20.45,36.27,42.84,36.27h404.48c22.39,0,41.03-15.77,42.84-36.27l34.11-385.97H204.46Zm262.29,246.26h-189.63c-4.66,0-8.89-1.89-11.95-4.94-3.07-3.06-4.95-7.28-4.95-11.95,0-9.34,7.57-16.9,16.9-16.9h189.63c4.66,0,8.89,1.89,11.95,4.94,3.06,3.07,4.94,7.29,4.94,11.96,0,9.33-7.56,16.89-16.89,16.89Zm0-64.24h-189.63c-4.66,0-8.89-1.9-11.95-4.95-3.07-3.06-4.95-7.28-4.95-11.95,0-9.33,7.57-16.89,16.9-16.89h189.63c4.66,0,8.89,1.89,11.95,4.94,3.06,3.06,4.94,7.28,4.94,11.95,0,9.33-7.56,16.9-16.89,16.9Zm117.69-76.31h-304.72c-10.77,0-19.49-8.73-19.49-19.49s8.73-19.48,19.49-19.48h304.72c10.76,0,19.48,8.73,19.48,19.48s-8.73,19.49-19.48,19.49Z" opacity=".5"/><path fill="#b1bec6" d="m685.88,925.65h-404.48c-23.25,0-42.94-16.73-44.83-38.09l-34.29-388.15h562.74l-34.3,388.15c-1.89,21.36-21.58,38.09-44.83,38.09ZM206.64,503.41l33.91,383.8c1.71,19.31,19.65,34.44,40.85,34.44h404.48c21.2,0,39.14-15.13,40.85-34.44l33.92-383.8H206.64Z"/><path fill="#b1bec6" d="m466.75,749.67h-189.63c-5.05,0-9.79-1.96-13.36-5.53-3.57-3.56-5.54-8.31-5.54-13.36,0-10.42,8.48-18.9,18.9-18.9h189.63c5.05,0,9.79,1.96,13.36,5.53,3.57,3.58,5.53,8.33,5.53,13.37,0,10.42-8.47,18.89-18.89,18.89Zm-189.63-33.79c-8.22,0-14.9,6.68-14.9,14.9,0,3.98,1.55,7.72,4.37,10.53,2.81,2.81,6.55,4.36,10.53,4.36h189.63c8.21,0,14.89-6.68,14.89-14.89,0-3.98-1.55-7.72-4.36-10.54-2.81-2.81-6.55-4.35-10.53-4.35h-189.63Z"/><path fill="#b1bec6" d="m466.75,685.43h-189.63c-5.04,0-9.79-1.97-13.36-5.54-3.57-3.56-5.54-8.3-5.54-13.36,0-10.42,8.48-18.89,18.9-18.89h189.63c5.05,0,9.79,1.96,13.36,5.53,3.57,3.57,5.53,8.31,5.53,13.36,0,10.42-8.47,18.9-18.89,18.9Zm-189.63-33.79c-8.22,0-14.9,6.68-14.9,14.89,0,3.98,1.55,7.72,4.37,10.53,2.82,2.82,6.56,4.37,10.53,4.37h189.63c8.21,0,14.89-6.68,14.89-14.9,0-3.98-1.55-7.72-4.36-10.53-2.81-2.81-6.55-4.36-10.53-4.36h-189.63Z"/><path fill="#b1bec6" d="m584.44,609.12h-304.72c-11.85,0-21.49-9.64-21.49-21.49s9.64-21.48,21.49-21.48h304.72c11.85,0,21.48,9.64,21.48,21.48s-9.64,21.49-21.48,21.49Zm-304.72-38.98c-9.65,0-17.49,7.84-17.49,17.48s7.85,17.49,17.49,17.49h304.72c9.64,0,17.48-7.85,17.48-17.49s-7.84-17.48-17.48-17.48h-304.72Z"/><g opacity=".75"><path fill="#b1bec6" d="m584.43,568.14h-304.72c-10.76,0-19.49,8.73-19.49,19.49s8.73,19.49,19.49,19.49h304.72c10.76,0,19.49-8.73,19.49-19.49s-8.73-19.49-19.49-19.49Z"/><path fill="#b1bec6" d="m466.75,649.64h-189.63c-9.33,0-16.89,7.56-16.89,16.89h0c0,9.33,7.56,16.89,16.89,16.89h189.63c9.33,0,16.89-7.56,16.89-16.89h0c0-9.33-7.56-16.89-16.89-16.89Z"/><rect width="223.42" height="33.79" x="260.22" y="713.88" fill="#b1bec6" rx="16.89" ry="16.89"/></g><path fill="#b1bec6" d="m762.82,478.58H199.39c-1.1,0-2-.9-2-2s.9-2,2-2h563.43c1.1,0,2,.9,2,2s-.9,2-2,2Z"/><path fill="#b1bec6" d="m667.11,888.74h-392.42c-1.1,0-2-.9-2-2s.9-2,2-2h392.42c1.1,0,2,.9,2,2s-.9,2-2,2Z"/><g><path fill="#b1bec6" d="m455.01,243.57c0,.73-.01,1.47-.02,2.2-1.03,44.69-33.14,83.37-79.91,103.03l-4.55,36.52c-.72,5.82-7.83,8.25-11.97,4.08l-28.27-28.51c-8.27,1.12-16.77,1.71-25.45,1.71-82.01,0-148.67-52.11-150.15-116.83-.01-.73-.02-1.47-.02-2.2,0-65.75,67.24-119.04,150.18-119.04,82.94,0,150.18,53.29,150.18,119.04Z" opacity=".25"/><path fill="#b1bec6" d="m363.53,393.5c-2.36,0-4.66-.93-6.39-2.69l-27.57-27.81c-8.12,1.06-16.44,1.6-24.73,1.6-40.07,0-77.9-12.28-106.5-34.57-28.71-22.37-44.92-52.27-45.65-84.22-.01-.76-.02-1.5-.02-2.24,0-66.74,68.27-121.04,152.18-121.04s152.18,54.3,152.18,121.04c0,.74-.01,1.49-.02,2.23-1,43.74-31.65,83.64-80.07,104.39l-4.41,35.38c-.43,3.46-2.74,6.31-6.04,7.43-.97.33-1.96.49-2.94.49Zm-32.52-34.72l28.97,29.22c1.39,1.41,3.34,1.86,5.2,1.23,1.86-.64,3.12-2.18,3.36-4.14l4.7-37.67,1.07-.45c47.56-19.99,77.71-58.78,78.69-101.23.01-.71.02-1.43.02-2.15,0-64.53-66.47-117.04-148.18-117.04s-148.18,52.5-148.18,117.04c0,.72.01,1.44.02,2.16.7,30.71,16.36,59.53,44.1,81.14,27.91,21.75,64.86,33.72,104.05,33.72,8.45,0,16.92-.57,25.18-1.69l.99-.13Z"/><path fill="#b1bec6" d="m339.88,210.78c-1.6-4.33-3.76-8.15-6.45-11.41-5.93-7.19-14.04-11.24-24.29-12.12-1.39-.1-2.82-.17-4.29-.17h-.04c-7.84,0-14.54,1.64-20.11,4.92-3.21,1.89-6.03,4.33-8.49,7.31-.1.11-.19.23-.27.34-2.58,3.21-4.66,6.91-6.22,11.12-.25.67-.48,1.35-.69,2.04-1.96,6.09-2.94,13.15-2.94,21.22v20.3c0,14.92,3.4,26.46,10.15,34.67,6.62,7.99,15.91,12.1,27.87,12.29h.84c1.43,0,2.82-.06,4.18-.17,10.26-.82,18.37-4.87,24.33-12.04,6.75-8.15,10.11-19.75,10.11-34.74v-20.24c0-8.99-1.22-16.77-3.7-23.31Zm-22.02,47.45c-.05,7.99-1.11,13.86-3.2,17.59-2.09,3.75-5.32,5.61-9.7,5.61h-.11c-4.47-.03-7.74-1.95-9.81-5.76-2.09-3.85-3.13-9.91-3.13-18.2v-28.39c.15-7.43,1.23-12.98,3.24-16.65,2.02-3.66,5.23-5.49,9.66-5.49h.04c4.51.01,7.81,1.98,9.89,5.91,2.08,3.95,3.12,9.91,3.12,17.9v27.48Z" opacity=".5"/><path fill="#b1bec6" d="m304.96,303.29h-.84c-12.54-.2-22.43-4.58-29.42-13.01-7.04-8.55-10.61-20.64-10.61-35.94v-20.3c0-8.25,1.02-15.59,3.03-21.83.22-.73.47-1.45.72-2.12,1.61-4.35,3.8-8.26,6.49-11.63.1-.14.21-.28.32-.41,2.62-3.17,5.65-5.78,9.02-7.76,5.86-3.45,12.96-5.2,21.12-5.2,1.68,0,3.27.09,4.47.18,10.8.92,19.43,5.24,25.69,12.84,2.82,3.42,5.1,7.45,6.78,11.98,2.54,6.71,3.83,14.79,3.83,24.02v20.24c0,15.44-3.56,27.56-10.57,36.02-6.31,7.61-14.96,11.9-25.71,12.76-1.4.12-2.86.18-4.34.18Zm-.11-114.21c-7.48,0-13.9,1.56-19.13,4.65-2.97,1.75-5.65,4.06-7.96,6.86-.06.07-.11.13-.15.18l-.1.14c-2.44,3.04-4.43,6.6-5.9,10.57-.23.63-.45,1.28-.65,1.93-1.89,5.87-2.85,12.8-2.85,20.63v20.3c0,14.35,3.26,25.58,9.69,33.4,6.2,7.49,15.07,11.38,26.36,11.56h.81c1.37,0,2.72-.06,4.01-.16,9.64-.77,17.36-4.58,22.96-11.32,6.4-7.72,9.65-18.98,9.65-33.47v-20.24c0-8.75-1.2-16.35-3.57-22.61h0c-1.52-4.12-3.58-7.77-6.12-10.85-5.56-6.73-13.27-10.57-22.92-11.4-1.1-.07-2.6-.16-4.12-.16Zm.1,94.35h-.11c-5.25-.04-9.14-2.33-11.57-6.81-2.27-4.18-3.37-10.45-3.37-19.16v-28.39c.16-7.87,1.3-13.61,3.49-17.61,2.39-4.33,6.23-6.53,11.41-6.53,5.26.01,9.29,2.43,11.7,6.98,2.26,4.29,3.35,10.45,3.35,18.84v27.49c-.05,8.42-1.18,14.49-3.46,18.55-2.46,4.4-6.31,6.64-11.44,6.64Zm-.12-74.5c-3.76,0-6.27,1.42-7.94,4.46-1.84,3.36-2.85,8.65-3,15.72v28.35c0,7.91.97,13.72,2.89,17.25,1.71,3.15,4.35,4.69,8.07,4.72h.1c3.68,0,6.21-1.46,7.95-4.59,1.91-3.42,2.9-9.01,2.95-16.62v-27.47c0-7.62-.97-13.33-2.89-16.97-1.72-3.25-4.38-4.84-8.12-4.85Zm13.02,49.3h0,0Z"/></g><g><path fill="#b1bec6" d="m488.81,123.46c-14.77-9.03-32.84-8.08-46.34.96,13.5-9.04,31.57-9.99,46.33-.96l229.77,140.65h0s-229.77-140.66-229.77-140.66Z" opacity=".25"/><path fill="#b1bec6" d="m123.85,218.64h34.12c14.46-53.77,74.72-94.1,146.86-94.1,43.49,0,82.66,14.66,110.09,38.08-.09-.08-.19-.16-.28-.25l15.12-24.71s.06-.09.09-.14l24.87-40.65c12.39-20.23,38.82-26.59,59.05-14.2l240.54,147.25c13.27-7.2,28.48-11.29,44.65-11.29h77.18c25.89,0,49.35-10.5,66.32-27.47,16.97-16.97,27.47-40.41,27.47-66.32,0-51.8-42-93.79-93.79-93.79H123.85c-25.89,0-49.35,10.5-66.32,27.47-16.98,16.97-27.47,40.41-27.47,66.32,0,51.8,41.99,93.79,93.79,93.79Z" opacity=".25"/><path fill="#b1bec6" d="m454.39,254.43c-.29,2.54-.68,5.05-1.17,7.54.49-2.49.88-5,1.17-7.54Z" opacity=".25"/><path fill="#b1bec6" d="m443.55,289.24c-1.26,2.39-2.61,4.75-4.05,7.06.7-1.11,1.38-2.23,2.04-3.37.7-1.22,1.37-2.45,2.02-3.69Z" opacity=".25"/><path fill="#b1bec6" d="m876.15,593.79c25.89,0,49.35-10.5,66.32-27.47,16.97-16.97,27.47-40.41,27.47-66.32,0-51.8-42-93.79-93.79-93.79h-77.18c-1.75,0-3.49-.05-5.22-.15l-5.63,9.2-10.03,16.37s0,0,0,0c1.47,2.49,2.3,5.39,2.3,8.48v44.47c0,9.3-7.54,16.83-16.83,16.83H203.72c-9.3,0-16.83-7.53-16.83-16.83v-44.47c0-9.29,7.53-16.83,16.83-16.83h559.84c4.98,0,9.45,2.17,12.52,5.61-3.07-3.44-7.54-5.61-12.52-5.61h-136.17l-193.69-118.57c.19-.25.37-.51.56-.76-14.1,18.94-34.61,34.52-59.18,44.84l-4.55,36.52c-.72,5.82-7.83,8.26-11.97,4.08l-28.27-28.51c-7.6,1.03-15.41,1.59-23.37,1.67-3.72,5.86-8.06,11.29-12.95,16.18-16.97,16.97-40.42,27.47-66.32,27.47h-103.8c-25.89,0-49.35,10.5-66.32,27.47-16.98,16.97-27.47,40.41-27.47,66.32,0,51.8,41.99,93.79,93.79,93.79h1.2c51.8,0,93.79,42,93.79,93.79,0,25.91-10.5,49.35-27.47,66.32-16.97,16.97-40.41,27.47-66.32,27.47h-1.2c-25.89,0-49.35,10.5-66.32,27.47-16.98,16.97-27.47,40.42-27.47,66.32,0,51.8,41.99,93.79,93.79,93.79h752.3c25.89,0,49.35-10.5,66.32-27.47,16.97-16.97,27.47-40.41,27.47-66.32,0-51.79-42-93.79-93.79-93.79h-138.06l-9.37,106.02c-1.81,20.49-20.45,36.27-42.84,36.27h-404.48c-22.39,0-41.03-15.77-42.84-36.27l-34.1-385.97h558.37l-8.16,92.38h121.49Z" opacity=".25"/><path fill="#b1bec6" d="m445.2,146.62c-.23.21-.45.43-.66.65-.66.66-1.29,1.36-1.88,2.09-.2.25-.41.5-.59.76-.58.75-1.13,1.54-1.63,2.38l-13.39,21.88c-.05-.06-.11-.11-.16-.17.63.7,1.25,1.4,1.86,2.1-.12-.14-.23-.27-.35-.41.7-2.24,1.69-4.43,2.97-6.52l14.06-22.98c-.09.09-.15.14-.23.21Z" opacity=".25"/><path fill="#b1bec6" d="m450.07,273.94c.82-2.46,1.54-4.95,2.15-7.47-.62,2.52-1.34,5.01-2.15,7.47Z" opacity=".25"/></g></svg>